Coordinates
datacolumns 11
datarows 64
range 0 0.63
inDegrees=yes
Units are S.I. units (second, meters, Newtons, ...)
If the header above contains a line with 'inDegrees', this indicates whether rotational values are in degrees (yes) or radians (no).
endheader
time	pelvis_tilt	pelvis_tx	pelvis_ty	hip_flexion_l	hip_flexion_r	knee_angle_l	knee_angle_r	ankle_angle_l	ankle_angle_r	lumbar
0	43.42576027	0.05028483	0.54743397	48.83767648	48.83767648	-112.1151265	-112.1151265	21.10914223	21.10914223	-53.18264053
0.01	43.43644553	0.05012253	0.54732708	48.84734984	48.84734984	-112.1135633	-112.1135633	21.10791165	21.10791165	-53.18041377
0.02	43.4422095	0.04999107	0.54722817	48.86869986	48.86869986	-112.1151376	-112.1151376	21.10382237	21.10382237	-53.18476793
0.03	43.4167255	0.04987991	0.54706351	48.94287293	48.94287293	-112.1326454	-112.1326454	21.07187307	21.07187307	-53.23654186
0.04	43.33015559	0.04974641	0.54677353	49.09390094	49.09390094	-112.1325107	-112.1325107	20.95772965	20.95772965	-53.32222601
0.05	43.33751929	0.04961181	0.54670597	49.102199	49.102199	-112.130616	-112.130616	20.95713645	20.95713645	-53.32296437
0.06	43.32356252	0.0495112	0.5466353	49.1524735	49.1524735	-112.133151	-112.133151	20.94685221	20.94685221	-53.36437898
0.07	43.24568876	0.04941178	0.54639217	49.28536428	49.28536428	-112.1344273	-112.1344273	20.86835307	20.86835307	-53.52943392
0.08	43.2104611	0.04929921	0.54626955	49.35643024	49.35643024	-112.1280122	-112.1280122	20.82590684	20.82590684	-53.58939446
0.09	43.15908261	0.04921071	0.54611845	49.44392376	49.44392376	-112.128923	-112.128923	20.78847317	20.78847317	-53.69922699
0.1	43.11443866	0.04912999	0.54601416	49.52246268	49.52246268	-112.1261291	-112.1261291	20.76595895	20.76595895	-53.80672103
0.11	43.07814275	0.04909486	0.54591212	49.58809873	49.58809873	-112.1265739	-112.1265739	20.75016012	20.75016012	-53.90007218
0.12	42.98419949	0.04904224	0.54566226	49.73569625	49.73569625	-112.1288897	-112.1288897	20.7047583	20.7047583	-54.1235779
0.13	42.90427075	0.04901492	0.54546332	49.85614377	49.85614377	-112.1325029	-112.1325029	20.66091589	20.66091589	-54.27936857
0.14	42.81139935	0.04902562	0.54523707	49.99009047	49.99009047	-112.1382469	-112.1382469	20.62304456	20.62304456	-54.4412253
0.15	42.72146958	0.04904842	0.54501971	50.12023382	50.12023382	-112.1469558	-112.1469558	20.60014619	20.60014619	-54.611252
0.16	42.62146293	0.04909715	0.54475799	50.26265632	50.26265632	-112.1624853	-112.1624853	20.57756836	20.57756836	-54.80785623
0.17	42.50019502	0.04916984	0.54448043	50.42597972	50.42597972	-112.1791322	-112.1791322	20.54727982	20.54727982	-55.01700613
0.18	42.3951213	0.04925075	0.54418403	50.57419153	50.57419153	-112.1980998	-112.1980998	20.53265657	20.53265657	-55.21599289
0.19	42.13781207	0.04951372	0.54371623	50.87069473	50.87069473	-112.2089777	-112.2089777	20.46584265	20.46584265	-55.24460762
0.2	42.03118547	0.0496749	0.54346459	51.01608125	51.01608125	-112.2358818	-112.2358818	20.47698739	20.47698739	-55.51711122
0.21	41.90722619	0.04989247	0.54322558	51.17314231	51.17314231	-112.2619877	-112.2619877	20.47444172	20.47444172	-55.7854268
0.22	41.76473989	0.05015968	0.54299179	51.35078745	51.35078745	-112.2893382	-112.2893382	20.47390276	20.47390276	-56.06940911
0.23	41.61555011	0.05048221	0.54276555	51.52349478	51.52349478	-112.3168026	-112.3168026	20.47304351	20.47304351	-56.34061152
0.24	41.45104233	0.05085165	0.54254274	51.71153449	51.71153449	-112.3452441	-112.3452441	20.47507586	20.47507586	-56.62732804
0.25	41.27350362	0.05126655	0.54231894	51.91074914	51.91074914	-112.3750353	-112.3750353	20.47837442	20.47837442	-56.92008916
0.26	40.97042576	0.05179753	0.54193071	52.24043281	52.24043281	-112.3980325	-112.3980325	20.42249624	20.42249624	-57.07032171
0.27	40.80838511	0.05224749	0.54173441	52.42159093	52.42159093	-112.4352999	-112.4352999	20.46798706	20.46798706	-57.42765255
0.28	40.62352658	0.05270034	0.54151607	52.63053224	52.63053224	-112.4738972	-112.4738972	20.48713544	20.48713544	-57.79004573
0.29	40.42705194	0.05320075	0.54125675	52.85373113	52.85373113	-112.5160517	-112.5160517	20.50716106	20.50716106	-58.16980888
0.3	40.21532979	0.05372302	0.54097708	53.09500035	53.09500035	-112.5626961	-112.5626961	20.52784961	20.52784961	-58.56404126
0.31	40.03380599	0.05429615	0.54078171	53.2886569	53.2886569	-112.6101938	-112.6101938	20.55036187	20.55036187	-58.89232546
0.32	39.53820799	0.0550732	0.54005308	53.88013277	53.88013277	-112.6811364	-112.6811364	20.48519274	20.48519274	-59.10418046
0.33	39.31176537	0.05569618	0.53977816	54.12712934	54.12712934	-112.7408026	-112.7408026	20.54948462	20.54948462	-59.5686937
0.34	39.05539943	0.0563733	0.53947378	54.40803715	54.40803715	-112.8056342	-112.8056342	20.59795135	20.59795135	-60.03696782
0.35	38.75765527	0.05709976	0.53916292	54.73061241	54.73061241	-112.8702248	-112.8702248	20.63871223	20.63871223	-60.49943959
0.36	38.18006786	0.05814278	0.53845628	55.3897174	55.3897174	-112.9641507	-112.9641507	20.60316708	20.60316708	-60.5898295
0.37	37.89746395	0.05894799	0.53824185	55.67444456	55.67444456	-113.0254914	-113.0254914	20.67978375	20.67978375	-61.13374605
0.38	37.41781374	0.0599771	0.53777968	56.18923777	56.18923777	-113.1024615	-113.1024615	20.69408081	20.69408081	-61.45271804
0.39	37.09874132	0.06089426	0.53760678	56.50210817	56.50210817	-113.1644585	-113.1644585	20.77624604	20.77624604	-62.02788796
0.4	36.53421991	0.06208283	0.5371202	57.10548194	57.10548194	-113.2474662	-113.2474662	20.79661411	20.79661411	-62.30939751
0.41	36.19522428	0.06310132	0.53699543	57.42268668	57.42268668	-113.3066501	-113.3066501	20.89075812	20.89075812	-62.93748401
0.42	35.77832348	0.06423486	0.53679617	57.82954124	57.82954124	-113.3708465	-113.3708465	20.97830705	20.97830705	-63.52210243
0.43	35.33923872	0.06545399	0.53659307	58.2549469	58.2549469	-113.438378	-113.438378	21.0830922	21.0830922	-64.11547805
0.44	34.50448073	0.06708845	0.53580185	59.1485819	59.1485819	-113.550442	-113.550442	21.16103991	21.16103991	-64.17562793
0.45	34.08919147	0.06839943	0.53563521	59.53604051	59.53604051	-113.6197888	-113.6197888	21.32069929	21.32069929	-64.86178243
0.46	33.32601889	0.07014735	0.53493466	60.32152967	60.32152967	-113.7338673	-113.7338673	21.55796667	21.55796667	-65.08920536
0.47	32.867201	0.07170583	0.53467493	60.75922124	60.75922124	-113.8444703	-113.8444703	21.7678372	21.7678372	-65.8000908
0.48	31.91375992	0.07383636	0.53368545	61.75320486	61.75320486	-113.9871389	-113.9871389	22.11685435	22.11685435	-65.78926424
0.49	31.42093183	0.07565167	0.53336045	62.22062191	62.22062191	-114.1389269	-114.1389269	22.39607922	22.39607922	-66.50192276
0.5	30.30761375	0.07815125	0.53219383	63.37345225	63.37345225	-114.3029251	-114.3029251	22.81225287	22.81225287	-66.30448088
0.51	29.76107657	0.08032594	0.53188889	63.86825378	63.86825378	-114.4613032	-114.4613032	23.16115065	23.16115065	-66.93179584
0.52	28.66526593	0.08317282	0.53082882	64.95610651	64.95610651	-114.6476135	-114.6476135	23.67194009	23.67194009	-66.72196732
0.53	28.12895914	0.08568208	0.53071599	65.41005921	65.41005921	-114.8101268	-114.8101268	23.89369523	23.89369523	-67.36277403
0.54	26.7795079	0.08898855	0.5296716	66.7271881	66.7271881	-114.9466939	-114.9466939	24.18331465	24.18331465	-66.836701
0.55	26.21568746	0.09187378	0.52990596	67.11988562	67.11988562	-115.0588602	-115.0588602	24.41096269	24.41096269	-67.39619251
0.56	24.94805416	0.09543323	0.52934524	68.26480184	68.26480184	-115.1524051	-115.1524051	24.605727	24.605727	-66.91718346
0.57	24.05203108	0.09887274	0.52959818	68.93360738	68.93360738	-115.2072491	-115.2072491	24.82643454	24.82643454	-66.9155229
0.58	23.13982049	0.10241724	0.53009755	69.57175979	69.57175979	-115.2279747	-115.2279747	25.00467721	25.00467721	-66.88696302
0.59	22.39722529	0.10594329	0.53111471	69.97796473	69.97796473	-115.217619	-115.217619	25.20824171	25.20824171	-67.0933368
0.6	21.3240533	0.10978641	0.53192899	70.69825269	70.69825269	-115.1861405	-115.1861405	25.41536254	25.41536254	-66.7586121
0.61	20.39280608	0.11358928	0.5333579	71.18756905	71.18756905	-115.0685751	-115.0685751	25.63598743	25.63598743	-66.54931263
0.62	19.48467658	0.1174251	0.53509796	71.60815797	71.60815797	-114.9334082	-114.9334082	25.91507142	25.91507142	-66.36640686
0.63	18.67192848	0.12121795	0.53729525	71.86574753	71.86574753	-114.7476437	-114.7476437	26.2607164	26.2607164	-66.216036
